<?xml version="1.0" encoding="utf-8"?>
<!-- Generator: Adobe Illustrator 26.0.1, SVG Export Plug-In . SVG Version: 6.00 Build 0)  -->
<svg version="1.1" id="Слой_1" xmlns="http://www.w3.org/2000/svg" xmlns:xlink="http://www.w3.org/1999/xlink" x="0px" y="0px"
	 viewBox="0 0 1920 1920" style="enable-background:new 0 0 1920 1920;" xml:space="preserve">
<style type="text/css">
	.st0{fill:#F2F2F2;}
	.st1{fill:#FFFFFF;}
	.st2{fill:#D75C36;}
	.st3{fill:#1A1A1A;}
</style>
<g>
	<g>
		<path class="st1" d="M1136.57,596.1l-66.02,10.6l6.18-15.62l40.95-7l-24.88-33.64l5.88-14.86l40.65,53.53L1136.57,596.1z"/>
		<path class="st1" d="M1178.21,657.26l62.62-74.03l49.21,41.63l-8.73,10.32l-37.43-31.66l-18.7,22.1l31.39,26.55l-8.12,9.59
			l-31.38-26.55l-27.08,32.01L1178.21,657.26z"/>
		<path class="st1" d="M1325.17,665.6l8.92,11.4l-53.16,89.42l-9.92-12.69l14.93-23.7l-23.88-30.54l-26.63,8.74l-9.93-12.69
			L1325.17,665.6z M1292.34,719.83l24.05-38.19l-42.91,14.08L1292.34,719.83z"/>
		<path class="st1" d="M1286.32,781.03l85.92-44.94l7.15,13.67l-85.92,44.94L1286.32,781.03z"/>
		<path class="st1" d="M1305.09,817.76l92.24-29.87l4.75,14.68l-79.38,25.7l15.99,49.37l-12.87,4.17L1305.09,817.76z"/>
		<path class="st1" d="M1330.11,929.39c-0.55-6.81,0.3-13.13,2.57-18.98c2.27-5.85,5.57-11.02,9.91-15.53
			c4.34-4.51,9.34-8.11,15.02-10.81c5.67-2.7,11.59-4.29,17.77-4.79c6.44-0.52,12.69,0.16,18.73,2.04
			c6.04,1.88,11.53,4.75,16.45,8.6c4.92,3.85,8.95,8.45,12.08,13.82c3.13,5.36,4.97,11.4,5.51,18.12
			c0.57,6.99-0.33,13.38-2.69,19.19s-5.73,10.95-10.12,15.41c-4.39,4.46-9.4,8.02-15.03,10.67s-11.53,4.22-17.7,4.72
			c-6.35,0.51-12.55-0.12-18.58-1.92c-6.04-1.79-11.52-4.61-16.44-8.46c-4.93-3.85-8.93-8.46-12.01-13.82
			C1332.48,942.28,1330.66,936.19,1330.11,929.39z M1376.64,894.92c-4.63,0.38-8.99,1.43-13.1,3.19c-4.1,1.75-7.71,4.09-10.8,7.04
			c-3.1,2.94-5.44,6.38-7.04,10.3c-1.6,3.92-2.21,8.28-1.82,13.09c0.4,4.9,1.75,9.17,4.05,12.83c2.3,3.65,5.27,6.65,8.88,9.01
			c3.62,2.35,7.57,4.04,11.85,5.07c4.28,1.03,8.61,1.36,12.96,1.01c4.63-0.37,8.97-1.46,13.03-3.25c4.05-1.79,7.63-4.18,10.72-7.17
			c3.09-2.99,5.44-6.45,7.04-10.37c1.6-3.92,2.21-8.19,1.84-12.82c-0.41-4.99-1.76-9.29-4.06-12.89c-2.3-3.6-5.24-6.59-8.81-8.94
			c-3.57-2.36-7.5-4.05-11.78-5.07C1385.32,894.91,1381,894.57,1376.64,894.92z"/>
		<path class="st1" d="M1427.11,1011.71l-82.11,15.6l72.15,42l-2.74,15.88l-89.05-54.07l2.47-14.26l102.06-21.15L1427.11,1011.71z"
			/>
		<path class="st1" d="M1298.89,1147.74l-12.39-5.42l26.65-60.94l88.84,38.85l-26.15,59.81l-12.39-5.42l19.97-45.67l-25.4-11.11
			l-17.34,39.66l-11.51-5.03l17.34-39.66l-27.15-11.87L1298.89,1147.74z"/>
		<path class="st1" d="M1278.43,1155.67l77.61,58.13l-25.3,33.78c-2.62,3.49-5.75,6.15-9.39,7.98c-3.64,1.82-7.47,2.91-11.49,3.26
			c-4.01,0.35-7.98-0.01-11.91-1.07c-3.92-1.06-7.42-2.74-10.48-5.03c-3.5-2.62-6.33-5.71-8.5-9.27c-2.17-3.56-3.52-7.33-4.06-11.32
			c-0.54-3.99-0.18-7.89,1.1-11.72l-43.18-3.85l10.32-13.77l39.6,3.39l13.43-17.93l-27-20.22L1278.43,1155.67z M1306.99,1196.35
			l-15.96,21.31c-1.69,2.26-2.52,4.77-2.48,7.53c0.04,2.76,0.77,5.47,2.19,8.13c1.42,2.66,3.45,4.97,6.07,6.93
			c2.7,2.02,5.59,3.25,8.67,3.68c3.09,0.44,5.95,0.22,8.59-0.65c2.64-0.87,4.78-2.39,6.42-4.58l15.47-20.66L1306.99,1196.35z"/>
		<path class="st1" d="M1136.47,1318.36c-2.76-4.39-3.99-8.9-3.67-13.51c0.32-4.61,1.84-8.96,4.54-13.03
			c2.71-4.07,6.41-7.59,11.11-10.55l39.17-24.67l51.67,82.04l-42.29,26.63c-3.85,2.43-7.83,3.5-11.93,3.23
			c-4.1-0.27-7.9-1.53-11.42-3.78c-3.51-2.25-6.36-5.11-8.55-8.57c-2.47-3.93-3.81-8.31-4-13.14c-0.19-4.83,1.07-9.28,3.78-13.35
			c-5.57,1.57-10.89,1.37-15.95-0.61C1143.88,1327.08,1139.72,1323.51,1136.47,1318.36z M1151.17,1312.49
			c1.45,2.31,3.29,4.11,5.5,5.41c2.22,1.29,4.52,2,6.9,2.11s4.69-0.53,6.93-1.94l26.92-16.96l-15.86-25.19l-26.12,16.45
			c-2.31,1.45-4,3.35-5.05,5.69c-1.06,2.33-1.55,4.76-1.46,7.29C1149.02,1307.87,1149.76,1310.25,1151.17,1312.49z M1219.26,1335.78
			l-15.35-24.38l-23.69,14.92c-2.16,1.36-3.74,3.11-4.76,5.26c-1.02,2.15-1.45,4.44-1.32,6.88c0.14,2.44,0.94,4.82,2.39,7.13
			c1.5,2.39,3.27,4.21,5.3,5.46c2.03,1.25,4.19,1.91,6.48,1.97c2.3,0.06,4.49-0.57,6.57-1.88L1219.26,1335.78z"/>
		<path class="st1" d="M1110.05,1404.78l-13.79,4.42l-65.51-80.81l15.34-4.92l17.07,22.2l36.92-11.85l1.01-28l15.34-4.92
			L1110.05,1404.78z M1070.52,1355.21l27.51,35.78l1.63-45.13L1070.52,1355.21z"/>
		<path class="st1" d="M1016.86,1329.6l5.89,96.78l-42.12,2.56c-4.36,0.27-8.41-0.4-12.16-2c-3.74-1.6-7.05-3.81-9.91-6.65
			c-2.86-2.84-5.16-6.1-6.89-9.78c-1.73-3.68-2.71-7.43-2.94-11.24c-0.27-4.36,0.26-8.52,1.57-12.48c1.31-3.96,3.31-7.43,6-10.42
			c2.69-2.99,5.91-5.24,9.65-6.74l-25-35.42l17.18-1.04l23.04,32.39l22.36-1.36l-2.05-33.67L1016.86,1329.6z M1004.33,1377.7
			l-26.58,1.61c-2.82,0.17-5.27,1.16-7.35,2.98c-2.08,1.81-3.67,4.12-4.78,6.93c-1.11,2.8-1.56,5.84-1.36,9.11
			c0.2,3.36,1.14,6.36,2.8,9c1.67,2.64,3.68,4.68,6.05,6.13c2.37,1.45,4.92,2.1,7.64,1.93l25.76-1.57L1004.33,1377.7z"/>
		<path class="st1" d="M785.87,1333.21l65.71-14.71l-5.08,15.15l-40.82,9.65l26.94,31.78l-5.34,15.93l-43.8-50.68L785.87,1333.21z"
			/>
		<path class="st1" d="M737.6,1260.2l-63.53,73.25l-48.7-42.23l8.86-10.22l37.04,32.12l18.97-21.88l-31.06-26.93l8.23-9.49
			l31.06,26.93l27.47-31.67L737.6,1260.2z"/>
		<path class="st1" d="M590.81,1250.11l-8.78-11.51l54.24-88.77l9.77,12.81l-15.21,23.52l23.51,30.83l26.73-8.41l9.77,12.82
			L590.81,1250.11z M624.29,1196.28l-24.52,37.89l43.07-13.55L624.29,1196.28z"/>
		<path class="st1" d="M631.04,1135.14l-86.47,43.88l-6.98-13.76l86.47-43.87L631.04,1135.14z"/>
		<path class="st1" d="M612.72,1098.17l-92.61,28.73l-4.57-14.74l79.69-24.72l-15.37-49.56l12.91-4.01L612.72,1098.17z"/>
		<path class="st1" d="M589.08,986.23c0.47,6.81-0.47,13.13-2.8,18.95c-2.34,5.82-5.7,10.96-10.1,15.41
			c-4.39,4.45-9.44,7.99-15.15,10.62c-5.71,2.63-11.64,4.16-17.82,4.58c-6.45,0.45-12.68-0.31-18.7-2.27
			c-6.02-1.96-11.47-4.89-16.35-8.8c-4.88-3.91-8.85-8.56-11.91-13.96c-3.06-5.4-4.83-11.46-5.29-18.18
			c-0.48-7,0.5-13.38,2.93-19.16c2.43-5.78,5.87-10.88,10.31-15.29c4.44-4.41,9.49-7.91,15.16-10.49
			c5.66-2.58,11.58-4.08,17.76-4.51c6.36-0.44,12.54,0.28,18.56,2.15c6.02,1.87,11.46,4.76,16.34,8.67s8.82,8.56,11.84,13.97
			C586.87,973.31,588.61,979.42,589.08,986.23z M542.14,1020.12c4.63-0.32,9.01-1.33,13.14-3.03c4.13-1.7,7.76-4,10.89-6.91
			c3.13-2.91,5.52-6.31,7.17-10.21c1.65-3.9,2.31-8.26,1.97-13.07c-0.34-4.91-1.63-9.2-3.89-12.87c-2.26-3.67-5.18-6.71-8.77-9.11
			c-3.59-2.4-7.51-4.14-11.79-5.21c-4.27-1.08-8.59-1.46-12.95-1.17c-4.63,0.32-8.99,1.35-13.06,3.09
			c-4.08,1.74-7.68,4.09-10.81,7.04c-3.13,2.95-5.52,6.38-7.17,10.28c-1.65,3.9-2.31,8.17-1.99,12.8c0.34,5,1.65,9.31,3.9,12.94
			c2.26,3.63,5.16,6.65,8.7,9.05c3.54,2.4,7.45,4.14,11.72,5.22C533.46,1020.03,537.78,1020.42,542.14,1020.12z"/>
		<path class="st1" d="M493.09,902.81l82.29-14.6l-71.63-42.87l2.94-15.84l88.39,55.14l-2.64,14.23l-102.31,19.91L493.09,902.81z"/>
		<path class="st1" d="M623,768.28l12.32,5.57l-27.4,60.6l-88.35-39.95l26.89-59.48l12.32,5.57l-20.53,45.42l25.26,11.42
			l17.84-39.45l11.45,5.17l-17.84,39.45l27,12.21L623,768.28z"/>
		<path class="st1" d="M643.56,760.58l-76.88-59.08l25.71-33.46c2.66-3.47,5.83-6.09,9.49-7.86c3.66-1.78,7.5-2.82,11.52-3.11
			c4.02-0.3,7.98,0.11,11.9,1.22c3.91,1.11,7.38,2.83,10.42,5.16c3.46,2.66,6.26,5.79,8.38,9.37c2.13,3.59,3.43,7.38,3.92,11.37
			c0.49,4,0.08,7.9-1.24,11.7l43.13,4.39l-10.48,13.64l-39.56-3.88l-13.65,17.76l26.75,20.55L643.56,760.58z M615.5,719.56
			l16.23-21.12c1.72-2.23,2.58-4.73,2.57-7.49c0-2.76-0.7-5.47-2.09-8.15c-1.39-2.68-3.38-5.01-5.98-7.01
			c-2.67-2.05-5.54-3.31-8.63-3.79c-3.08-0.47-5.95-0.29-8.6,0.54c-2.65,0.84-4.81,2.34-6.47,4.5l-15.73,20.47L615.5,719.56z"/>
		<path class="st1" d="M787.46,599.7c2.71,4.42,3.88,8.94,3.5,13.55c-0.38,4.61-1.95,8.94-4.7,12.97
			c-2.76,4.04-6.5,7.51-11.24,10.41l-39.47,24.19l-50.66-82.67l42.62-26.11c3.88-2.38,7.87-3.41,11.96-3.09
			c4.09,0.32,7.88,1.63,11.37,3.92c3.49,2.29,6.3,5.19,8.44,8.68c2.42,3.96,3.7,8.36,3.84,13.19c0.13,4.83-1.18,9.27-3.94,13.3
			c5.59-1.5,10.91-1.23,15.95,0.8C780.16,590.88,784.28,594.5,787.46,599.7z M704.89,581.27l15.06,24.57l23.87-14.63
			c2.17-1.33,3.78-3.06,4.82-5.2c1.04-2.13,1.51-4.42,1.4-6.86c-0.11-2.44-0.88-4.83-2.31-7.16c-1.47-2.4-3.22-4.25-5.23-5.53
			s-4.16-1.96-6.46-2.05c-2.3-0.09-4.49,0.51-6.59,1.79L704.89,581.27z M772.69,605.39c-1.43-2.33-3.24-4.15-5.44-5.48
			c-2.2-1.32-4.49-2.06-6.87-2.2c-2.38-0.14-4.7,0.48-6.95,1.86L726.3,616.2l15.55,25.38l26.32-16.12c2.33-1.43,4.04-3.3,5.12-5.62
			c1.09-2.32,1.6-4.75,1.55-7.27C774.79,610.03,774.07,607.64,772.69,605.39z"/>
		<path class="st1" d="M814.97,513.6l13.84-4.25l64.51,81.62l-15.4,4.73l-16.8-22.41l-37.06,11.38l-1.36,27.99l-15.4,4.73
			L814.97,513.6z M853.89,563.65l-27.07-36.12l-2.19,45.1L853.89,563.65z"/>
		<path class="st1" d="M907.19,589.94l-4.72-96.85l42.15-2.05c4.37-0.21,8.41,0.5,12.14,2.14c3.72,1.64,7,3.9,9.83,6.77
			c2.83,2.87,5.08,6.15,6.77,9.86c1.68,3.7,2.62,7.46,2.8,11.28c0.21,4.37-0.36,8.52-1.72,12.46c-1.36,3.94-3.4,7.39-6.13,10.35
			s-5.97,5.17-9.73,6.63l24.57,35.72l-17.19,0.84l-22.64-32.67l-22.37,1.09l1.64,33.69L907.19,589.94z M920.3,541.99l26.6-1.3
			c2.82-0.14,5.28-1.1,7.38-2.89c2.1-1.79,3.72-4.08,4.86-6.87c1.14-2.79,1.63-5.82,1.47-9.1c-0.16-3.36-1.06-6.37-2.7-9.03
			c-1.63-2.65-3.63-4.72-5.97-6.2c-2.35-1.48-4.89-2.15-7.62-2.02l-25.78,1.25L920.3,541.99z"/>
	</g>
	<g>
		<path class="st2" d="M831.29,844.93h256.8v68.25h-17.72v-46.34H849.01v46.34h-17.72V844.93z"/>
		<path class="st2" d="M951.79,1042.77c0-22.88-13.85-26.1-23.84-26.1c-8.7,0-17.4,1.29-26.1,2.58c-8.7,1.29-17.72,2.58-26.42,2.58
			c-32.54,0-44.14-31.39-44.14-57.81v-6.77h17.72v5.48c0.32,18.04,9.99,36.86,28.03,36.86c7.73,0,15.14-1.29,23.2-2.26
			c7.73-1.29,15.79-2.58,24.49-2.58c20.62,0,31.58,9.02,35.12,23.2h0.65c3.87-14.18,14.18-23.2,34.8-23.2
			c8.7,0,16.43,1.29,24.49,2.58c7.73,0.97,15.47,2.26,22.88,2.26c17.4,0,27.39-17.85,27.71-36.54v-5.8h17.72v6.44
			c0,27.39-12.57,58.13-42.21,58.13c-9.02,0-17.72-1.29-26.74-2.58c-9.02-1.29-18.04-2.58-27.06-2.58
			c-11.28,0-23.84,3.22-23.84,26.1H951.79z"/>
		<path class="st2" d="M968.21,1064.12c0,22.88,13.85,26.1,23.84,26.1c8.7,0,17.4-1.29,26.1-2.58c8.7-1.29,17.72-2.58,26.42-2.58
			c32.54,0,44.14,31.39,44.14,57.81v6.77h-17.72v-5.48c-0.32-18.04-9.99-36.86-28.03-36.86c-7.73,0-15.14,1.29-23.2,2.26
			c-7.73,1.29-15.79,2.58-24.49,2.58c-20.62,0-31.58-9.02-35.12-23.2h-0.65c-3.87,14.18-14.18,23.2-34.8,23.2
			c-8.7,0-16.43-1.29-24.49-2.58c-7.73-0.97-15.47-2.26-22.88-2.26c-17.4,0-27.39,17.85-27.71,36.54v5.8h-17.72v-6.44
			c0-27.39,12.57-58.13,42.21-58.13c9.02,0,17.72,1.29,26.74,2.58c9.02,1.29,18.04,2.58,27.06,2.58c11.28,0,23.84-3.22,23.84-26.1
			H968.21z"/>
	</g>
	<polygon class="st2" points="1029.47,712.81 921.23,935.48 944.26,935.48 1052.5,712.81 	"/>
</g>
</svg>
